<?xml version="1.0" encoding="UTF-8"?>
<!DOCTYPE svg PUBLIC "-//W3C//DTD SVG 1.1//EN" "http://www.w3.org/Graphics/SVG/1.1/DTD/svg11.dtd">
<!-- Creator: CorelDRAW (OEM Version) -->
<svg xmlns="http://www.w3.org/2000/svg" xml:space="preserve" width="153px" height="52px" version="1.1" style="shape-rendering:geometricPrecision; text-rendering:geometricPrecision; image-rendering:optimizeQuality; fill-rule:evenodd; clip-rule:evenodd"
viewBox="0 0 153 52"
 xmlns:xlink="http://www.w3.org/1999/xlink"
 xmlns:xodm="http://www.corel.com/coreldraw/odm/2003">
 <defs>
  <style type="text/css">
   <![CDATA[
    .fil1 {fill:#CC4390}
    .fil0 {fill:#F4C200}
    .fil2 {fill:#CC4391;fill-rule:nonzero}
   ]]>
  </style>
 </defs>
 <g id="Layer_x0020_1">
  <metadata id="CorelCorpID_0Corel-Layer"/>
  <g id="_2029631269024">
   <g>
    <path class="fil0" d="M30.019 35.701c1.394,-0.438 1.774,-1.479 2.29,-2.151 2.384,-0.065 2.799,2.448 3.513,4.374 0.358,0.967 0.7,1.951 1.079,2.918 1.114,2.84 -1.914,4.28 -3.525,3.239 -0.875,-0.566 -1.046,-1.277 -1.474,-2.427 -0.494,-1.325 -1.946,-4.652 -1.883,-5.953zm-13.282 -1.992c1.443,-0.382 2.452,0.457 2.876,1.385 0.529,1.16 -0.1,2.42 -0.437,3.492 -0.357,1.135 -0.715,2.256 -1.08,3.393 -0.404,1.261 -0.721,2.079 -1.943,2.435 -1.444,0.421 -2.547,-0.512 -2.944,-1.399 -0.512,-1.149 0.116,-2.407 0.443,-3.478 0.347,-1.138 0.731,-2.239 1.085,-3.392 0.426,-1.386 0.662,-2.081 2,-2.436zm13.339 6.723c0.269,0.738 0.531,1.433 0.799,2.154 0.554,1.496 0.596,1.163 0.96,1.912 -2.441,0.226 -2.84,-1.672 -3.122,-3.178 -0.288,-1.534 -0.874,-3.816 -0.956,-5.287l0.929 0c0.262,1.667 0.848,2.913 1.39,4.399zm-18.23 2.766c-1.146,-0.119 -2.068,-0.94 -2.203,-2.05 -0.146,-1.197 1.784,-4.806 2.404,-5.978 0.578,-1.092 0.703,-1.8 1.792,-2.271l0.738 0.615c-0.181,0.339 -0.421,0.558 -0.63,0.988l-1.162 3.499c-0.55,1.751 -1.312,3.193 -0.939,5.197zm8.136 -12.997c0.246,-0.401 0.933,-0.393 1.376,-0.404 1.384,-0.034 7.5,-0.127 8.235,0.168 1.683,0.676 2.274,2.855 0.671,4.283 -0.696,0.62 -1.694,0.548 -2.811,0.548 -1.743,-0.001 -5.081,0.19 -6.639,-0.052 -0.265,-0.415 -0.366,-0.696 -0.649,-1.063 -0.303,-0.395 -0.502,-0.452 -0.876,-0.813 0.445,-1.147 0.693,-0.98 0.693,-2.667zm-5.583 -2.265c2.184,-0.099 3.191,-1.161 3.967,-2.642 0.562,0.782 0.37,2.615 0.37,3.765 0,0.585 0.056,1.545 -0.042,2.087 -0.114,0.636 -0.447,0.916 -0.761,1.239 -1.898,-0.037 -2.023,0.608 -2.709,0.048 -1.13,-0.924 -0.997,-3.034 -0.825,-4.497zm-5.149 -7.397c0.976,-0.211 3.452,-0.111 4.589,-0.097 3.126,0.037 4.464,2.872 2.904,5.049 -0.637,0.889 -1.93,1.142 -3.475,1.141 -1.1,-0.001 -3.613,0.131 -4.503,-0.211 -0.577,-0.222 -1.016,-0.614 -1.317,-1.061 -0.412,-0.61 -0.269,-1.149 -1.124,-1.183 0,0 -1.78,0.204 -1.237,-0.909 0.302,-0.618 1.34,-0.059 1.772,-0.522 0.361,-0.386 0.571,-1.814 2.391,-2.207zm21.159 8.356c0.215,-0.906 0.766,-2.165 1.108,-3.105 0.422,-1.16 0.69,-1.954 1.998,-2.18 0.952,-0.165 0.892,-0.02 1.228,-0.877l1.215 -2.987c0.275,-0.251 0.539,-0.103 0.542,0.253 0.003,0.343 -1.461,3.286 -1.284,3.862 0.169,0.549 1.446,1.011 0.656,3.047 -0.395,1.017 -0.797,1.979 -1.204,2.985 -0.385,0.954 -0.834,2.108 -2.073,2.031 -0.415,-1.272 -0.574,-2.23 -2.186,-3.029zm-13.412 -19.002c0.565,-0.125 1.113,-0.052 1.624,0.199 1.846,0.905 1.336,2.747 1.146,4.235 -0.296,2.324 -0.124,4.864 -2.337,5.378 -1.231,0.286 -2.285,-0.512 -2.668,-1.185 -0.564,-0.989 -0.278,-2.083 -0.125,-3.243 0.331,-2.521 0.076,-4.879 2.36,-5.384zm-3.487 9.049c-0.756,-0.128 -1.5,-1.086 -1.609,-2.011 -0.119,-1.009 -0.025,-2.606 -0.025,-3.677 0,-1.255 -0.145,-2.265 0.567,-3.108 0.473,-0.561 1.512,-1.195 2.636,-0.795 -0.086,0.193 0.016,0.024 -0.152,0.23l-0.544 0.599c-0.751,1.101 -0.712,2.265 -0.893,3.667 -0.214,1.649 -0.733,3.732 0.02,5.095zm4.323 1.912c1.158,-0.268 2.194,-1.277 2.55,-2.387 0.303,-0.944 0.462,-3.145 0.605,-4.257 0.204,-1.577 0.445,-2.846 -0.479,-4.008 -1.865,-2.346 -3.437,-1.192 -4.233,-1.666 -0.938,-0.557 -1.86,-0.745 -2.991,-0.403 -3.273,0.988 -2.657,4.403 -2.657,7.026 0,2.649 -0.122,2.065 0.861,4.046 -1.722,0 -3.336,-0.057 -4.634,1.347 -0.356,0.386 -0.5,0.73 -0.802,1.123 -0.042,0.026 -2.284,-0.107 -2.284,1.861 0,1.271 0.902,1.889 2.168,1.905 0.157,0.036 0.589,0.798 1.135,1.341 1.522,1.513 3.893,1.158 6.015,1.158l0.107 3.785c-1.445,0.871 -1.593,1.281 -2.355,2.898 -0.549,1.163 -1.134,2.328 -1.663,3.484 -0.598,1.306 -1.201,2.341 -0.577,3.999 1.005,2.668 3.816,2.352 4.042,2.438 0.071,0.027 0.564,0.439 0.758,0.572 1.859,1.27 4.143,0.603 5.286,-1.215 0.425,-0.676 2.373,-6.881 2.418,-7.912l5.429 -0.003c0.039,1.077 0.537,3.024 0.757,4.186 0.249,1.321 0.382,2.87 1.075,3.874 0.565,0.818 1.734,1.709 3.377,1.589 1.424,-0.104 0.706,-0.615 1.909,-0.212 1.887,0.632 4.031,-0.642 4.577,-2.547 0.415,-1.445 -0.218,-2.635 -0.675,-3.827 -0.46,-1.203 -0.904,-2.383 -1.36,-3.591 -0.596,-1.581 -0.811,-1.971 -2.139,-2.716 1.456,-1.111 1.573,-2.347 2.45,-4.441 0.322,-0.77 0.789,-1.706 0.745,-2.669 -0.022,-0.492 -0.165,-0.97 -0.361,-1.343 -0.282,-0.541 -0.606,-0.503 -0.376,-1.11 0.494,-1.297 2.251,-4.235 -0.047,-4.648 -1.568,-0.281 -1.811,1.042 -2.47,2.597 -0.098,0.231 -0.163,0.408 -0.246,0.609 -0.519,1.26 -0.68,0.269 -2.186,1.434 -0.462,0.358 -0.784,0.916 -1.055,1.61 -0.4,1.028 -1.036,2.929 -1.512,3.779 -2.503,0 -6.795,-0.243 -9.006,0.207 -0.043,-1.684 0.245,-3.128 -0.636,-4.363 -0.162,-0.227 -0.531,-0.532 -0.593,-0.726 -0.066,-0.204 -0.06,-0.817 -0.134,-1.122 -0.192,-0.793 -0.535,-1.125 -0.793,-1.702z"/>
    <path class="fil1" d="M9.25 20.539c-1.82,0.393 -2.03,1.821 -2.391,2.207 -0.432,0.463 -1.47,-0.096 -1.772,0.522 -0.543,1.113 1.237,0.909 1.237,0.909 0.855,0.034 0.712,0.573 1.124,1.183 0.301,0.447 0.74,0.839 1.317,1.061 0.89,0.342 3.403,0.21 4.503,0.211 1.545,0.001 2.838,-0.252 3.475,-1.141 1.56,-2.177 0.222,-5.012 -2.904,-5.049 -1.137,-0.014 -3.613,-0.114 -4.589,0.097z"/>
    <path class="fil1" d="M30.019 35.701c-0.063,1.301 1.389,4.628 1.883,5.953 0.428,1.15 0.599,1.861 1.474,2.427 1.611,1.041 4.639,-0.399 3.525,-3.239 -0.379,-0.967 -0.721,-1.951 -1.079,-2.918 -0.714,-1.926 -1.129,-4.439 -3.513,-4.374 -0.516,0.672 -0.896,1.713 -2.29,2.151z"/>
    <path class="fil1" d="M28.757 30.51c1.61,0.412 2.286,2.596 1.482,2.959 -1.174,0.531 -0.567,-1.188 -1.628,-1.666 -0.532,-0.24 -1.13,-0.012 -1.484,-0.227 -0.478,-0.29 -0.342,-0.936 0.145,-1.113 0.375,-0.137 1.057,-0.063 1.485,0.047zm-8.775 -0.309c0,1.687 -0.248,1.52 -0.693,2.667 0.374,0.361 0.573,0.418 0.876,0.813 0.283,0.367 0.384,0.648 0.649,1.063 1.558,0.242 4.896,0.051 6.639,0.052 1.117,0 2.115,0.072 2.811,-0.548 1.603,-1.428 1.012,-3.607 -0.671,-4.283 -0.735,-0.295 -6.851,-0.202 -8.235,-0.168 -0.443,0.011 -1.13,0.003 -1.376,0.404z"/>
    <path class="fil1" d="M14.168 39.817c0.452,-0.184 0.825,0.131 0.779,0.639 -0.082,0.888 -0.576,1.276 0.441,2.577 0.208,0.265 0.377,0.781 -0.087,1.017 -0.884,0.45 -1.993,-1.396 -1.68,-3.131 0.181,-1.009 0.113,-0.925 0.547,-1.102zm2.569 -6.108c-1.338,0.355 -1.574,1.05 -2,2.436 -0.354,1.153 -0.738,2.254 -1.085,3.392 -0.327,1.071 -0.955,2.329 -0.443,3.478 0.397,0.887 1.5,1.82 2.944,1.399 1.222,-0.356 1.539,-1.174 1.943,-2.435 0.365,-1.137 0.723,-2.258 1.08,-3.393 0.337,-1.072 0.966,-2.332 0.437,-3.492 -0.424,-0.928 -1.433,-1.767 -2.876,-1.385z"/>
    <path class="fil1" d="M16.997 9.893c-2.284,0.505 -2.029,2.863 -2.36,5.384 -0.153,1.16 -0.439,2.254 0.125,3.243 0.383,0.673 1.437,1.471 2.668,1.185 2.213,-0.514 2.041,-3.054 2.337,-5.378 0.19,-1.488 0.7,-3.33 -1.146,-4.235 -0.511,-0.251 -1.059,-0.324 -1.624,-0.199z"/>
    <path class="fil1" d="M30.409 28.895c1.612,0.799 1.771,1.757 2.186,3.029 1.239,0.077 1.688,-1.077 2.073,-2.031 0.407,-1.006 0.809,-1.968 1.204,-2.985 0.79,-2.036 -0.487,-2.498 -0.656,-3.047 -0.177,-0.576 1.287,-3.519 1.284,-3.862 -0.003,-0.356 -0.267,-0.504 -0.542,-0.253l-1.215 2.987c-0.336,0.857 -0.276,0.712 -1.228,0.877 -1.308,0.226 -1.576,1.02 -1.998,2.18 -0.342,0.94 -0.893,2.199 -1.108,3.105z"/>
    <path class="fil1" d="M14.399 27.936c-0.172,1.463 -0.305,3.573 0.825,4.497 0.686,0.56 0.811,-0.085 2.709,-0.048 0.314,-0.323 0.647,-0.603 0.761,-1.239 0.098,-0.542 0.042,-1.502 0.042,-2.087 0,-1.15 0.192,-2.983 -0.37,-3.765 -0.776,1.481 -1.783,2.543 -3.967,2.642z"/>
    <path class="fil1" d="M11.846 43.198c-0.373,-2.004 0.389,-3.446 0.939,-5.197l1.162 -3.499c0.209,-0.43 0.449,-0.649 0.63,-0.988l-0.738 -0.615c-1.089,0.471 -1.214,1.179 -1.792,2.271 -0.62,1.172 -2.55,4.781 -2.404,5.978 0.135,1.11 1.057,1.931 2.203,2.05z"/>
    <path class="fil1" d="M13.51 18.942c-0.753,-1.363 -0.234,-3.446 -0.02,-5.095 0.181,-1.402 0.142,-2.566 0.893,-3.667l0.544 -0.599c0.168,-0.206 0.066,-0.037 0.152,-0.23 -1.124,-0.4 -2.163,0.234 -2.636,0.795 -0.712,0.843 -0.567,1.853 -0.567,3.108 0,1.071 -0.094,2.668 0.025,3.677 0.109,0.925 0.853,1.883 1.609,2.011z"/>
    <path class="fil1" d="M31.835 44.498c-0.364,-0.749 -0.406,-0.416 -0.96,-1.912 -0.268,-0.721 -0.53,-1.416 -0.799,-2.154 -0.542,-1.486 -1.128,-2.732 -1.39,-4.399l-0.929 0c0.082,1.471 0.668,3.753 0.956,5.287 0.282,1.506 0.681,3.404 3.122,3.178z"/>
    <path class="fil0" d="M27.272 30.463c-0.487,0.177 -0.623,0.823 -0.145,1.113 0.354,0.215 0.952,-0.013 1.484,0.227 1.061,0.478 0.454,2.197 1.628,1.666 0.804,-0.363 0.128,-2.547 -1.482,-2.959 -0.428,-0.11 -1.11,-0.184 -1.485,-0.047z"/>
    <path class="fil0" d="M14.168 39.817c-0.434,0.177 -0.366,0.093 -0.547,1.102 -0.313,1.735 0.796,3.581 1.68,3.131 0.464,-0.236 0.295,-0.752 0.087,-1.017 -1.017,-1.301 -0.523,-1.689 -0.441,-2.577 0.046,-0.508 -0.327,-0.823 -0.779,-0.639z"/>
   </g>
   <g>
    <path class="fil2" d="M53.671 33.284c-0.237,-1.791 -0.386,-3.644 -0.444,-5.554 -0.055,-1.91 -0.055,-3.756 0,-5.539 -0.102,0.058 -0.191,0.111 -0.273,0.154 -0.078,0.046 -0.174,0.07 -0.287,0.07 -0.078,0 -0.154,-0.035 -0.221,-0.102 -0.069,-0.07 -0.101,-0.154 -0.101,-0.255l0 -0.052c0,-0.012 0.003,-0.03 0.014,-0.053 0.093,-0.101 0.203,-0.275 0.334,-0.525 0.131,-0.25 0.267,-0.497 0.415,-0.74 0.148,-0.245 0.29,-0.459 0.427,-0.648 0.136,-0.186 0.255,-0.279 0.357,-0.279 0.102,0 0.177,0.024 0.229,0.076 0.05,0.052 0.093,0.11 0.128,0.177 0.032,0.07 0.07,0.145 0.111,0.232 0.04,0.084 0.098,0.148 0.176,0.195 0.343,-0.203 0.715,-0.38 1.124,-0.529 0.409,-0.145 0.819,-0.249 1.234,-0.305 0.412,-0.057 0.816,-0.066 1.207,-0.026 0.392,0.041 0.746,0.137 1.063,0.291 0.316,0.151 0.589,0.371 0.816,0.653 0.226,0.284 0.374,0.642 0.444,1.071 -0.012,0.558 -0.174,1.08 -0.485,1.574 -0.313,0.493 -0.7,0.943 -1.158,1.344 -0.459,0.403 -0.955,0.76 -1.487,1.071 -0.534,0.313 -1.024,0.583 -1.471,0.81 -0.451,0.226 -0.819,0.406 -1.107,0.543 -0.29,0.136 -0.423,0.215 -0.4,0.238l0 6.108c0,0.09 -0.038,0.154 -0.119,0.185 -0.079,0.035 -0.154,0.053 -0.221,0.053 -0.124,0 -0.226,-0.081 -0.305,-0.238zm0.645 -11.755c-0.035,0.328 -0.076,0.688 -0.128,1.08 -0.049,0.392 -0.087,0.793 -0.11,1.208 -0.024,0.415 -0.02,0.819 0.009,1.216 0.029,0.398 0.104,0.755 0.229,1.071 0.488,-0.214 0.999,-0.455 1.533,-0.723 0.531,-0.266 1.042,-0.568 1.53,-0.908 0.487,-0.343 0.926,-0.717 1.318,-1.132 0.391,-0.415 0.682,-0.877 0.876,-1.388 0,-0.27 -0.099,-0.502 -0.299,-0.697 -0.197,-0.191 -0.438,-0.351 -0.723,-0.476 -0.281,-0.124 -0.574,-0.211 -0.876,-0.264 -0.299,-0.049 -0.546,-0.075 -0.738,-0.075 -0.113,0 -0.299,0.032 -0.554,0.093 -0.256,0.064 -0.523,0.142 -0.799,0.238 -0.278,0.096 -0.539,0.212 -0.783,0.348 -0.244,0.136 -0.404,0.273 -0.485,0.409zm11.737 11.534c-0.056,-0.296 -0.105,-0.65 -0.142,-1.065 -0.041,-0.412 -0.085,-0.833 -0.128,-1.257 -0.047,-0.427 -0.102,-0.825 -0.163,-1.199 -0.061,-0.375 -0.157,-0.683 -0.281,-0.921 -0.578,1.182 -1.089,2.108 -1.53,2.782 -0.441,0.676 -0.831,1.158 -1.164,1.445 -0.337,0.291 -0.616,0.43 -0.842,0.418 -0.23,-0.011 -0.415,-0.113 -0.564,-0.307 -0.147,-0.192 -0.252,-0.439 -0.313,-0.738 -0.064,-0.302 -0.105,-0.583 -0.128,-0.842 0,-0.249 0.055,-0.603 0.172,-1.056 0.113,-0.453 0.264,-0.95 0.458,-1.487 0.192,-0.54 0.421,-1.086 0.688,-1.643 0.267,-0.554 0.552,-1.059 0.859,-1.512 0.305,-0.456 0.625,-0.828 0.953,-1.124 0.328,-0.296 0.659,-0.441 0.987,-0.441 0.488,-0.081 0.847,0.023 1.08,0.313 0.232,0.291 0.275,0.776 0.127,1.455 0,0.749 0.032,1.391 0.093,1.922 0.064,0.534 0.131,1.042 0.203,1.53 0.076,0.487 0.143,0.998 0.206,1.532 0.062,0.532 0.093,1.173 0.093,1.922 0,0.137 -0.014,0.253 -0.043,0.349 -0.026,0.095 -0.166,0.145 -0.415,0.145 -0.035,0 -0.079,-0.029 -0.128,-0.087 -0.052,-0.055 -0.078,-0.102 -0.078,-0.134zm-0.918 -7.606c-0.124,-0.18 -0.296,-0.197 -0.511,-0.049 -0.214,0.148 -0.441,0.392 -0.679,0.731 -0.238,0.34 -0.482,0.749 -0.732,1.225 -0.249,0.476 -0.481,0.958 -0.696,1.446 -0.218,0.488 -0.404,0.949 -0.563,1.385 -0.157,0.438 -0.264,0.798 -0.323,1.08 0,0.409 0.062,0.638 0.186,0.691 0.125,0.049 0.279,-0.015 0.462,-0.198 0.18,-0.18 0.386,-0.441 0.621,-0.781 0.232,-0.339 0.459,-0.702 0.679,-1.088 0.221,-0.387 0.43,-0.761 0.63,-1.124 0.198,-0.363 0.354,-0.656 0.467,-0.885 0.102,-0.238 0.181,-0.459 0.239,-0.662 0.055,-0.203 0.104,-0.401 0.145,-0.586 0.038,-0.189 0.061,-0.378 0.067,-0.572 0.005,-0.192 0.008,-0.395 0.008,-0.613zm5.356 7.606c-0.055,-0.171 -0.151,-0.438 -0.287,-0.801 -0.136,-0.363 -0.29,-0.769 -0.459,-1.225 -0.171,-0.453 -0.351,-0.935 -0.546,-1.446 -0.191,-0.508 -0.374,-0.993 -0.542,-1.446 -0.171,-0.452 -0.325,-0.862 -0.462,-1.225 -0.134,-0.363 -0.238,-0.633 -0.305,-0.816 -0.066,-0.101 -0.128,-0.217 -0.18,-0.348 -0.049,-0.13 -0.075,-0.261 -0.075,-0.392 0,-0.13 0.029,-0.247 0.084,-0.348 0.058,-0.102 0.148,-0.174 0.273,-0.221 0.125,0 0.235,0.044 0.331,0.128 0.099,0.084 0.168,0.183 0.215,0.296l1.953 5.02c0.012,-0.16 0.041,-0.445 0.088,-0.86 0.043,-0.415 0.09,-0.853 0.136,-1.318 0.044,-0.464 0.087,-0.906 0.128,-1.318 0.037,-0.415 0.069,-0.699 0.092,-0.859 0.012,-0.113 0.024,-0.244 0.036,-0.392 0.008,-0.148 0.034,-0.287 0.075,-0.424 0.041,-0.136 0.101,-0.255 0.186,-0.357 0.087,-0.101 0.209,-0.154 0.366,-0.154 0.113,0 0.197,0.012 0.246,0.035 0.053,0.02 0.111,0.09 0.18,0.203l3.266 5.58 0 -5.751c0.328,0 0.557,0.084 0.688,0.247 0.131,0.165 0.209,0.366 0.238,0.603 0.029,0.239 0.026,0.494 -0.009,0.767 -0.032,0.273 -0.043,0.517 -0.034,0.732 0,0.078 0.005,0.249 0.017,0.511 0.012,0.261 0.026,0.56 0.044,0.9 0.017,0.339 0.032,0.705 0.043,1.097 0.012,0.392 0.023,0.758 0.041,1.097 0.017,0.34 0.032,0.642 0.043,0.903 0.012,0.261 0.018,0.43 0.018,0.508 0.078,0.229 0.075,0.377 -0.009,0.453 -0.084,0.073 -0.2,0.099 -0.348,0.075 -0.148,-0.023 -0.296,-0.084 -0.445,-0.186 -0.145,-0.101 -0.243,-0.217 -0.287,-0.342l-3.472 -5.885c-0.078,1.713 -0.157,3.142 -0.238,4.288 -0.078,1.144 -0.151,2.108 -0.221,2.892 -0.032,0.124 -0.089,0.191 -0.168,0.203 -0.081,0.011 -0.163,-0.003 -0.247,-0.044 -0.087,-0.037 -0.168,-0.098 -0.246,-0.177 -0.082,-0.078 -0.148,-0.148 -0.207,-0.203zm8.318 -5.835c-0.044,0 -0.113,0.02 -0.204,0.058 -0.09,0.041 -0.185,0.087 -0.281,0.136 -0.096,0.053 -0.189,0.099 -0.279,0.146 -0.093,0.046 -0.171,0.066 -0.238,0.066 -0.116,0 -0.215,-0.02 -0.299,-0.066 -0.084,-0.047 -0.128,-0.137 -0.128,-0.273 0,-0.113 0.055,-0.221 0.163,-0.322 0.107,-0.102 0.235,-0.204 0.383,-0.308 0.145,-0.102 0.293,-0.198 0.441,-0.288 0.148,-0.09 0.256,-0.183 0.322,-0.273 -0.023,-0.179 -0.037,-0.522 -0.049,-1.018 -0.011,-0.5 -0.008,-1.072 0.009,-1.71 0.014,-0.642 0.055,-1.304 0.119,-1.983 0.061,-0.679 0.157,-1.289 0.287,-1.829 0.131,-0.537 0.305,-0.961 0.52,-1.266 0.215,-0.307 0.494,-0.403 0.833,-0.29 0.238,0 0.453,0.07 0.647,0.212 0.192,0.142 0.358,0.319 0.494,0.528 0.133,0.209 0.241,0.439 0.313,0.688 0.073,0.25 0.111,0.476 0.111,0.682 0,0.114 -0.026,0.236 -0.076,0.366 -0.052,0.131 -0.145,0.195 -0.281,0.195l-0.05 0c-0.011,0 -0.023,-0.006 -0.034,-0.018 -0.273,-0.691 -0.503,-1.129 -0.691,-1.318 -0.186,-0.185 -0.346,-0.188 -0.476,-0.008 -0.131,0.183 -0.239,0.505 -0.322,0.969 -0.085,0.465 -0.157,1.002 -0.212,1.609 -0.059,0.606 -0.108,1.248 -0.154,1.921 -0.047,0.674 -0.09,1.301 -0.137,1.879 0.227,-0.056 0.418,-0.113 0.572,-0.169 0.151,-0.058 0.29,-0.116 0.415,-0.18 0.125,-0.061 0.238,-0.125 0.34,-0.186 0.102,-0.063 0.215,-0.116 0.34,-0.162 0.237,-0.113 0.502,-0.224 0.792,-0.331 0.287,-0.107 0.569,-0.163 0.842,-0.163 0,0.328 -0.061,0.601 -0.18,0.816 -0.119,0.218 -0.27,0.392 -0.459,0.528 -0.186,0.137 -0.4,0.235 -0.639,0.299 -0.238,0.062 -0.478,0.117 -0.722,0.16 -0.244,0.047 -0.473,0.093 -0.688,0.137 -0.215,0.046 -0.401,0.101 -0.561,0.171 0.035,0.737 0.082,1.382 0.146,1.939 0.06,0.555 0.119,1.048 0.168,1.478 0.052,0.432 0.09,0.827 0.119,1.184 0.029,0.357 0.026,0.711 -0.009,1.062 0,0.079 0.003,0.189 0.009,0.332 0.006,0.142 0,0.281 -0.018,0.418 -0.017,0.136 -0.057,0.252 -0.127,0.348 -0.067,0.096 -0.175,0.145 -0.322,0.145 -0.137,0 -0.238,-0.032 -0.305,-0.096 -0.07,-0.061 -0.113,-0.188 -0.137,-0.38 -0.069,-0.92 -0.122,-1.698 -0.162,-2.34 -0.041,-0.641 -0.07,-1.178 -0.093,-1.617 -0.023,-0.435 -0.035,-0.778 -0.035,-1.027l0 -0.784c0,-0.044 -0.006,-0.067 -0.017,-0.067zm5.17 2.601c-0.055,0.012 -0.143,0.029 -0.256,0.052 -0.113,0.023 -0.232,0.029 -0.357,0.018 -0.124,-0.012 -0.235,-0.047 -0.331,-0.102 -0.095,-0.058 -0.145,-0.154 -0.145,-0.29 0,-0.078 0.017,-0.137 0.053,-0.171 0.034,-0.033 0.09,-0.085 0.168,-0.151 0.25,-0.207 0.464,-0.468 0.639,-0.793 0.176,-0.322 0.336,-0.668 0.484,-1.036 0.148,-0.369 0.305,-0.738 0.468,-1.106 0.165,-0.369 0.354,-0.7 0.571,-0.996 0.215,-0.293 0.482,-0.531 0.799,-0.714 0.316,-0.18 0.708,-0.267 1.173,-0.256 0.194,0 0.409,0.047 0.647,0.137 0.238,0.09 0.459,0.212 0.662,0.366 0.206,0.153 0.374,0.336 0.511,0.551 0.136,0.218 0.206,0.456 0.206,0.717 0.055,0.09 0.003,0.221 -0.162,0.389 -0.166,0.171 -0.39,0.354 -0.674,0.555 -0.282,0.197 -0.604,0.4 -0.961,0.612 -0.357,0.209 -0.7,0.404 -1.028,0.587 -0.327,0.179 -0.618,0.339 -0.868,0.476 -0.249,0.136 -0.412,0.238 -0.493,0.304 -0.055,0.114 -0.102,0.244 -0.137,0.392 -0.031,0.149 -0.058,0.288 -0.075,0.418 -0.018,0.131 -0.029,0.25 -0.035,0.358 -0.006,0.107 -0.009,0.188 -0.009,0.246 0,0.215 -0.008,0.453 -0.026,0.714 -0.014,0.262 -0.003,0.508 0.035,0.741 0.041,0.232 0.133,0.423 0.282,0.577 0.148,0.154 0.397,0.23 0.749,0.23 0.374,0 0.725,-0.093 1.053,-0.282 0.329,-0.186 0.636,-0.415 0.918,-0.688 0.284,-0.273 0.543,-0.566 0.775,-0.885 0.232,-0.317 0.441,-0.616 0.63,-0.892 0.186,-0.278 0.354,-0.508 0.502,-0.69 0.145,-0.18 0.27,-0.27 0.374,-0.27 0.114,0 0.236,0.02 0.366,0.058 0.128,0.04 0.195,0.133 0.195,0.281 0,0.203 -0.081,0.447 -0.247,0.732 -0.165,0.281 -0.38,0.583 -0.647,0.9 -0.268,0.319 -0.572,0.632 -0.918,0.946 -0.345,0.311 -0.694,0.589 -1.048,0.833 -0.351,0.244 -0.696,0.442 -1.036,0.595 -0.34,0.151 -0.641,0.23 -0.9,0.23 -0.511,0 -0.897,-0.125 -1.158,-0.375 -0.262,-0.25 -0.444,-0.56 -0.552,-0.934 -0.107,-0.375 -0.165,-0.776 -0.171,-1.2 -0.006,-0.426 -0.015,-0.821 -0.026,-1.184zm3.129 -4.592c-0.191,0 -0.395,0.095 -0.612,0.281 -0.215,0.186 -0.415,0.415 -0.604,0.679 -0.186,0.267 -0.34,0.54 -0.459,0.819 -0.119,0.276 -0.177,0.505 -0.177,0.688 0.169,0 0.415,-0.067 0.74,-0.194 0.322,-0.131 0.642,-0.294 0.961,-0.485 0.317,-0.195 0.595,-0.398 0.834,-0.613 0.237,-0.218 0.356,-0.421 0.356,-0.612 0,-0.102 -0.04,-0.189 -0.119,-0.256 -0.081,-0.07 -0.174,-0.125 -0.281,-0.171 -0.108,-0.044 -0.218,-0.078 -0.331,-0.102 -0.113,-0.023 -0.215,-0.034 -0.308,-0.034zm4.422 4.354c0.034,-0.406 0.069,-0.853 0.104,-1.335 0.032,-0.482 0.087,-0.961 0.16,-1.437 0.075,-0.476 0.171,-0.929 0.29,-1.362 0.119,-0.429 0.279,-0.813 0.476,-1.147 0.197,-0.333 0.444,-0.601 0.74,-0.798 0.294,-0.2 0.65,-0.293 1.072,-0.281 0.284,0 0.502,0.119 0.653,0.357 0.153,0.238 0.261,0.528 0.325,0.867 0.061,0.34 0.096,0.689 0.102,1.046 0.005,0.357 0.008,0.65 0.008,0.876 -0.226,0 -0.415,-0.098 -0.56,-0.299 -0.148,-0.197 -0.261,-0.426 -0.343,-0.687 -0.078,-0.262 -0.136,-0.518 -0.168,-0.767l-0.052 -0.494c-0.012,0 -0.032,-0.003 -0.058,-0.005 -0.029,-0.006 -0.05,-0.009 -0.061,-0.009 -0.192,0 -0.372,0.107 -0.534,0.322 -0.166,0.215 -0.32,0.491 -0.462,0.825 -0.139,0.334 -0.261,0.708 -0.366,1.123 -0.101,0.412 -0.186,0.819 -0.253,1.217 -0.069,0.397 -0.121,0.76 -0.162,1.097 -0.041,0.334 -0.061,0.592 -0.061,0.772 -0.02,0.296 -0.02,0.618 0,0.969 0.024,0.352 0.093,0.683 0.206,0.988 0.113,0.307 0.27,0.569 0.476,0.792 0.204,0.221 0.477,0.372 0.816,0.45 0.421,0 0.761,-0.058 1.022,-0.171 0.258,-0.114 0.473,-0.267 0.636,-0.459 0.165,-0.191 0.293,-0.409 0.383,-0.647 0.09,-0.238 0.18,-0.485 0.264,-0.737 0.084,-0.256 0.174,-0.508 0.264,-0.758 0.09,-0.25 0.221,-0.482 0.389,-0.697 0.137,-0.035 0.238,-0.032 0.299,0.006 0.064,0.04 0.105,0.095 0.128,0.162 0.023,0.07 0.035,0.149 0.035,0.238l0 0.189c0,0.476 -0.082,0.935 -0.238,1.376 -0.16,0.444 -0.392,0.836 -0.7,1.182 -0.305,0.348 -0.671,0.624 -1.094,0.836 -0.427,0.209 -0.912,0.313 -1.455,0.313 -0.455,0 -0.833,-0.145 -1.132,-0.432 -0.302,-0.291 -0.534,-0.639 -0.697,-1.048 -0.165,-0.407 -0.281,-0.836 -0.348,-1.283 -0.07,-0.447 -0.104,-0.831 -0.104,-1.15zm7.266 -3.35c-0.114,0.058 -0.221,0.116 -0.317,0.18 -0.096,0.061 -0.188,0.119 -0.281,0.168 -0.09,0.053 -0.18,0.087 -0.27,0.111 -0.093,0.023 -0.189,0.023 -0.291,0 -0.066,0 -0.124,-0.041 -0.168,-0.128 -0.046,-0.084 -0.084,-0.18 -0.113,-0.288 -0.026,-0.107 -0.047,-0.217 -0.058,-0.325 -0.012,-0.107 -0.012,-0.188 0,-0.246l1.631 -0.935 0.105 -4.355c0.02,-0.148 0.113,-0.206 0.27,-0.177 0.159,0.026 0.325,0.064 0.493,0.111 0.023,0 0.061,0.008 0.11,0.023 0.053,0.017 0.09,0.032 0.111,0.043 -0.021,0.308 -0.047,0.639 -0.076,0.996 -0.029,0.357 -0.052,0.714 -0.075,1.071 -0.023,0.357 -0.038,0.706 -0.044,1.045 -0.006,0.343 0.009,0.648 0.044,0.92l2.552 -0.713c0.043,-0.012 0.081,0.02 0.11,0.092 0.026,0.073 0.055,0.163 0.084,0.265 0.029,0.101 0.05,0.203 0.058,0.304 0.012,0.102 0.018,0.154 0.018,0.154l-2.892 1.225c0,0.102 0.009,0.346 0.026,0.732 0.018,0.386 0.038,0.842 0.061,1.367 0.021,0.529 0.044,1.095 0.067,1.701 0.023,0.607 0.046,1.173 0.067,1.693 0.023,0.522 0.041,0.978 0.052,1.37 0.012,0.392 0.018,0.639 0.018,0.74 -0.024,0.34 -0.122,0.511 -0.3,0.511 -0.174,0 -0.365,-0.087 -0.568,-0.255l-0.424 -7.4zm13.673 6.465c0.023,-0.116 0.165,-0.224 0.427,-0.325 0.258,-0.102 0.583,-0.209 0.969,-0.322 0.383,-0.114 0.81,-0.238 1.275,-0.375 0.464,-0.136 0.911,-0.29 1.344,-0.459 0.429,-0.171 0.824,-0.362 1.182,-0.577 0.356,-0.218 0.621,-0.468 0.792,-0.749 0,-0.171 -0.113,-0.302 -0.334,-0.392 -0.221,-0.09 -0.514,-0.168 -0.883,-0.23 -0.368,-0.063 -0.789,-0.113 -1.259,-0.153 -0.471,-0.041 -0.953,-0.096 -1.446,-0.169 -0.494,-0.075 -0.975,-0.165 -1.446,-0.273 -0.47,-0.107 -0.891,-0.261 -1.26,-0.458 -0.368,-0.201 -0.661,-0.453 -0.882,-0.758 -0.224,-0.308 -0.334,-0.679 -0.334,-1.123 0,-0.442 0.099,-0.883 0.29,-1.318 0.192,-0.436 0.45,-0.86 0.775,-1.266 0.323,-0.409 0.691,-0.79 1.103,-1.141 0.416,-0.351 0.848,-0.659 1.304,-0.917 0.453,-0.262 0.903,-0.468 1.35,-0.613 0.45,-0.148 0.865,-0.223 1.251,-0.223 0.102,0 0.209,-0.003 0.322,-0.006 0.116,-0.006 0.215,0 0.299,0.014 0.084,0.018 0.157,0.061 0.212,0.128 0.058,0.07 0.087,0.171 0.087,0.308 0,0.328 -0.11,0.563 -0.325,0.705 -0.215,0.142 -0.476,0.212 -0.781,0.212l-0.664 -0.476c-0.262,0 -0.546,0.075 -0.86,0.221 -0.311,0.148 -0.63,0.342 -0.952,0.586 -0.322,0.244 -0.639,0.525 -0.943,0.845 -0.308,0.316 -0.575,0.644 -0.808,0.984 -0.232,0.342 -0.421,0.682 -0.563,1.022 -0.142,0.339 -0.212,0.647 -0.212,0.917 0,0.398 0.111,0.717 0.331,0.961 0.221,0.244 0.517,0.438 0.886,0.581 0.368,0.139 0.789,0.246 1.265,0.313 0.479,0.067 0.961,0.125 1.449,0.171 0.485,0.044 0.97,0.088 1.446,0.128 0.476,0.038 0.897,0.111 1.265,0.212 0.369,0.101 0.665,0.238 0.886,0.406 0.221,0.172 0.331,0.404 0.331,0.7 0.125,0.18 0.099,0.386 -0.076,0.618 -0.177,0.235 -0.45,0.468 -0.818,0.7 -0.366,0.232 -0.805,0.465 -1.309,0.697 -0.506,0.232 -1.022,0.441 -1.556,0.63 -0.532,0.186 -1.049,0.345 -1.548,0.476 -0.499,0.131 -0.923,0.212 -1.274,0.247 -0.105,0 -0.192,-0.035 -0.264,-0.102 -0.076,-0.07 -0.09,-0.189 -0.044,-0.357zm8.268 -6.465c-0.114,0.058 -0.221,0.116 -0.317,0.18 -0.096,0.061 -0.189,0.119 -0.281,0.168 -0.09,0.053 -0.18,0.087 -0.27,0.111 -0.093,0.023 -0.189,0.023 -0.291,0 -0.067,0 -0.124,-0.041 -0.168,-0.128 -0.046,-0.084 -0.084,-0.18 -0.113,-0.288 -0.026,-0.107 -0.047,-0.217 -0.058,-0.325 -0.012,-0.107 -0.012,-0.188 0,-0.246l1.631 -0.935 0.105 -4.355c0.02,-0.148 0.113,-0.206 0.27,-0.177 0.16,0.026 0.325,0.064 0.493,0.111 0.023,0 0.061,0.008 0.111,0.023 0.052,0.017 0.09,0.032 0.11,0.043 -0.02,0.308 -0.046,0.639 -0.076,0.996 -0.029,0.357 -0.052,0.714 -0.075,1.071 -0.023,0.357 -0.038,0.706 -0.044,1.045 -0.005,0.343 0.009,0.648 0.044,0.92l2.552 -0.713c0.043,-0.012 0.081,0.02 0.11,0.092 0.026,0.073 0.055,0.163 0.084,0.265 0.029,0.101 0.05,0.203 0.058,0.304 0.012,0.102 0.018,0.154 0.018,0.154l-2.892 1.225c0,0.102 0.009,0.346 0.026,0.732 0.018,0.386 0.038,0.842 0.061,1.367 0.021,0.529 0.044,1.095 0.067,1.701 0.023,0.607 0.047,1.173 0.067,1.693 0.023,0.522 0.041,0.978 0.052,1.37 0.012,0.392 0.018,0.639 0.018,0.74 -0.024,0.34 -0.122,0.511 -0.299,0.511 -0.175,0 -0.366,-0.087 -0.57,-0.255l-0.423 -7.4zm4.215 -0.935l0 -0.136c0,-0.114 0.044,-0.195 0.127,-0.238 0.088,-0.047 0.186,-0.07 0.3,-0.07 0.09,0 0.174,0.009 0.255,0.026 0.079,0.018 0.142,0.081 0.186,0.198 0.035,0.168 0.07,0.403 0.102,0.705 0.034,0.299 0.075,0.63 0.119,0.993 0.046,0.363 0.096,0.746 0.145,1.149 0.052,0.404 0.101,0.784 0.154,1.141 0.049,0.357 0.104,0.677 0.162,0.961 0.055,0.282 0.119,0.499 0.186,0.645 -0.035,-1.089 0,-2.032 0.102,-2.831 0.101,-0.801 0.299,-1.451 0.586,-1.957 0.29,-0.505 0.688,-0.856 1.19,-1.053 0.505,-0.201 1.138,-0.241 1.899,-0.128 0.351,0 0.525,0.186 0.525,0.56 0,0.148 -0.095,0.247 -0.287,0.299 -0.195,0.05 -0.41,0.085 -0.647,0.102 -0.239,0.017 -0.471,0.035 -0.697,0.058 -0.227,0.023 -0.392,0.081 -0.494,0.171 -0.409,0.227 -0.694,0.578 -0.859,1.054 -0.163,0.476 -0.282,1.039 -0.349,1.684 -0.066,0.647 -0.116,1.353 -0.145,2.119 -0.029,0.764 -0.104,1.55 -0.229,2.354 0,0.113 -0.044,0.201 -0.137,0.256 -0.089,0.058 -0.2,0.084 -0.33,0.084 -0.131,0 -0.256,-0.026 -0.375,-0.084 -0.119,-0.055 -0.212,-0.143 -0.281,-0.256l-1.208 -7.806zm6.892 5.867c-0.082,-0.519 -0.122,-1.027 -0.122,-1.521 0,-0.494 0.032,-0.996 0.096,-1.507 0.061,-0.508 0.15,-1.039 0.27,-1.59 0.119,-0.549 0.258,-1.141 0.418,-1.777 0,-0.125 0.035,-0.241 0.101,-0.349 0.07,-0.107 0.16,-0.197 0.273,-0.272 0.113,-0.073 0.232,-0.134 0.357,-0.177 0.125,-0.047 0.244,-0.07 0.357,-0.07 0.25,0 0.477,0.081 0.68,0.238 0.206,0.16 0.388,0.351 0.554,0.58 0.163,0.227 0.305,0.468 0.424,0.723 0.119,0.253 0.22,0.474 0.299,0.653 0.09,0.398 0.157,0.848 0.194,1.353 0.041,0.505 0.044,1.019 0.009,1.539 -0.035,0.523 -0.113,1.036 -0.238,1.541 -0.125,0.502 -0.299,0.967 -0.528,1.385 -0.227,0.421 -0.517,0.772 -0.874,1.054 -0.357,0.284 -0.781,0.462 -1.269,0.528 -0.261,0 -0.459,-0.087 -0.595,-0.264 -0.136,-0.174 -0.235,-0.392 -0.296,-0.647 -0.064,-0.253 -0.099,-0.511 -0.105,-0.772 -0.002,-0.262 -0.005,-0.477 -0.005,-0.648zm0.865 -0.049c0,0.113 0.003,0.22 0.009,0.322 0.005,0.102 0.017,0.2 0.034,0.299 0.018,0.096 0.041,0.197 0.067,0.305 0.029,0.107 0.067,0.229 0.114,0.366l0.101 0c0.27,0 0.505,-0.09 0.697,-0.273 0.191,-0.18 0.357,-0.415 0.493,-0.706 0.136,-0.29 0.25,-0.612 0.34,-0.969 0.09,-0.357 0.162,-0.709 0.212,-1.054 0.052,-0.346 0.087,-0.671 0.102,-0.97 0.017,-0.302 0.026,-0.542 0.026,-0.723l0 -0.339c0,-0.148 -0.006,-0.316 -0.018,-0.502 -0.012,-0.189 -0.029,-0.381 -0.058,-0.578 -0.029,-0.201 -0.073,-0.38 -0.128,-0.546 -0.058,-0.165 -0.13,-0.296 -0.22,-0.4 -0.093,-0.102 -0.212,-0.151 -0.357,-0.151 -0.25,-0.082 -0.462,-0.064 -0.639,0.049 -0.177,0.113 -0.316,0.305 -0.427,0.569 -0.107,0.267 -0.188,0.595 -0.243,0.978 -0.059,0.386 -0.093,0.813 -0.105,1.278 -0.012,0.464 -0.015,0.958 -0.009,1.48 0.006,0.52 0.009,1.042 0.009,1.565zm4.151 1.512c0.082,-0.522 0.134,-1.173 0.163,-1.956 0.029,-0.781 0.04,-1.614 0.035,-2.5 -0.006,-0.885 -0.027,-1.797 -0.061,-2.737 -0.032,-0.944 -0.079,-1.835 -0.137,-2.68 -0.055,-0.845 -0.122,-1.602 -0.194,-2.27 -0.073,-0.67 -0.151,-1.199 -0.23,-1.582 0.102,-0.07 0.189,-0.122 0.264,-0.163 0.073,-0.04 0.16,-0.06 0.265,-0.06 0.078,0 0.145,0.014 0.203,0.043 0.055,0.029 0.102,0.087 0.136,0.18 0.227,2.221 0.384,4.462 0.468,6.717 0.084,2.256 0.151,4.503 0.194,6.735 0,0.105 0,0.242 0,0.418 0,0.175 -0.006,0.27 -0.017,0.282 -0.157,0.079 -0.299,0.116 -0.424,0.11 -0.125,-0.005 -0.238,-0.04 -0.34,-0.101 -0.101,-0.064 -0.183,-0.134 -0.238,-0.215 -0.058,-0.078 -0.087,-0.151 -0.087,-0.221zm2.398 0c0.081,-0.522 0.133,-1.173 0.163,-1.956 0.029,-0.781 0.04,-1.614 0.034,-2.5 -0.005,-0.885 -0.026,-1.797 -0.061,-2.737 -0.032,-0.944 -0.078,-1.835 -0.136,-2.68 -0.055,-0.845 -0.122,-1.602 -0.195,-2.27 -0.072,-0.67 -0.15,-1.199 -0.229,-1.582 0.102,-0.07 0.189,-0.122 0.264,-0.163 0.073,-0.04 0.16,-0.06 0.264,-0.06 0.079,0 0.146,0.014 0.204,0.043 0.055,0.029 0.101,0.087 0.136,0.18 0.226,2.221 0.383,4.462 0.468,6.717 0.084,2.256 0.15,4.503 0.194,6.735 0,0.105 0,0.242 0,0.418 0,0.175 -0.006,0.27 -0.017,0.282 -0.157,0.079 -0.299,0.116 -0.424,0.11 -0.125,-0.005 -0.238,-0.04 -0.34,-0.101 -0.102,-0.064 -0.183,-0.134 -0.238,-0.215 -0.058,-0.078 -0.087,-0.151 -0.087,-0.221z"/>
    <path class="fil2" d="M142.643 33.249c0,0.011 0.122,-0.055 0.366,-0.203 0.244,-0.149 0.534,-0.343 0.868,-0.587 0.334,-0.244 0.676,-0.511 1.03,-0.801 0.351,-0.288 0.639,-0.563 0.865,-0.825 0.23,-0.261 0.352,-0.484 0.366,-0.67 0.018,-0.189 -0.136,-0.311 -0.467,-0.366 -0.407,-0.058 -0.752,-0.052 -1.028,0.015 -0.278,0.069 -0.531,0.148 -0.758,0.238 -0.226,0.093 -0.438,0.177 -0.638,0.255 -0.198,0.081 -0.415,0.107 -0.654,0.087 -0.499,0 -0.841,-0.156 -1.03,-0.467 -0.186,-0.314 -0.279,-0.735 -0.279,-1.269 0,-0.534 0.119,-1.039 0.357,-1.521 0.238,-0.482 0.543,-0.9 0.918,-1.251 0.374,-0.351 0.804,-0.633 1.292,-0.842 0.487,-0.209 0.987,-0.314 1.497,-0.314 0.204,0 0.381,0.015 0.529,0.05 0.145,0.035 0.22,0.165 0.22,0.392 0,0.159 -0.069,0.307 -0.206,0.45 -0.133,0.142 -0.287,0.212 -0.458,0.212 -0.012,0 -0.038,-0.009 -0.085,-0.023 -0.046,-0.018 -0.09,-0.044 -0.136,-0.079 -0.047,-0.032 -0.09,-0.058 -0.137,-0.075 -0.043,-0.018 -0.072,-0.027 -0.083,-0.027 -0.363,-0.101 -0.715,-0.049 -1.055,0.154 -0.342,0.203 -0.644,0.479 -0.911,0.825 -0.267,0.345 -0.479,0.72 -0.639,1.123 -0.156,0.401 -0.238,0.761 -0.238,1.08 0,0.125 0.026,0.224 0.079,0.296 0.049,0.076 0.119,0.128 0.203,0.163 0.084,0.034 0.183,0.055 0.29,0.058 0.108,0.006 0.218,0.009 0.331,0.009 0.227,0 0.456,-0.033 0.688,-0.102 0.232,-0.067 0.459,-0.148 0.682,-0.238 0.221,-0.09 0.447,-0.168 0.68,-0.238 0.232,-0.067 0.473,-0.102 0.723,-0.102 0.113,0 0.238,0.032 0.374,0.093 0.137,0.064 0.261,0.154 0.375,0.273 0.113,0.119 0.209,0.255 0.287,0.409 0.081,0.151 0.125,0.32 0.136,0.503 0.07,0.156 0.05,0.365 -0.058,0.627 -0.107,0.261 -0.27,0.54 -0.484,0.833 -0.215,0.296 -0.477,0.595 -0.784,0.894 -0.305,0.302 -0.613,0.572 -0.918,0.816 -0.307,0.244 -0.607,0.444 -0.902,0.595 -0.294,0.154 -0.543,0.223 -0.75,0.215 -0.226,0 -0.359,-0.07 -0.397,-0.207 -0.041,-0.136 -0.061,-0.287 -0.061,-0.458z"/>
   </g>
  </g>
 </g>
</svg>
